<?xml version="1.0"?><svg viewBox="0 0 30 29.76563" xmlns="http://www.w3.org/2000/svg"><title/><g data-name="Layer 2" id="Layer_2"><g id="Interface-Solid"><g id="work-business-solid-performance"><path fill="currentColor" d="M29,27.76562H27v-16a2.002,2.002,0,0,0-2-2H23a2.002,2.002,0,0,0-2,2v16H18v-10a2.002,2.002,0,0,0-2-2H14a2.002,2.002,0,0,0-2,2v10H9v-4a2.002,2.002,0,0,0-2-2H5a2.002,2.002,0,0,0-2,2v4H1a1,1,0,0,0,0,2H29a1,1,0,0,0,0-2Z"/><path fill="currentColor" d="M4.752,19.49561a1.24591,1.24591,0,0,0,.88379-.36622L20.49805,4.26709V6.25a1.25,1.25,0,0,0,2.5,0v-5a1.24991,1.24991,0,0,0-1.25-1.25h-5a1.25,1.25,0,0,0,0,2.5H18.73L3.86816,17.36182A1.25,1.25,0,0,0,4.752,19.49561Z"/></g></g></g></svg>